{"accessors" : [{"bufferView" : 0, "byteOffset" : 0, "componentType" : 5123, "count" : 24, "type" : "SCALAR", "max" : [22], "min" : [0]}, {"bufferView" : 1, "byteOffset" : 0, "componentType" : 5126, "count" : 23, "type" : "VEC3", "max" : [1.0562890768051147, 2.9542014598846436, 0.27577346563339233], "min" : [0.9402416944503784, 2.838153600692749, 0.27577340602874756], "name" : "POSITION"}, {"bufferView" : 1, "byteOffset" : 12, "componentType" : 5126, "count" : 23, "type" : "VEC4", "max" : [1.0000044107437134, 0.039987485855817795, 3.9120769201872463E-07, 0], "min" : [0.9992045164108276, -0.03998756781220436, -9.114371835039492E-08, 0], "name" : "TANGENT"}, {"bufferView" : 1, "byteOffset" : 28, "componentType" : 5126, "count" : 23, "type" : "VEC3", "max" : [7.668231916113655E-08, 1.2400001878631883E-06, 1.0000044107437134], "min" : [-3.912076635970152E-07, -6.19998104411934E-07, 1.0000042915344238], "name" : "NORMAL"}, {"bufferView" : 1, "byteOffset" : 40, "componentType" : 5126, "count" : 23, "type" : "VEC2", "max" : [0.65625, 0.3125], "min" : [0.34375, 0], "name" : "TEXCOORD_0"}, {"bufferView" : 0, "byteOffset" : 48, "componentType" : 5123, "count" : 24, "type" : "SCALAR", "max" : [22], "min" : [0]}, {"bufferView" : 2, "byteOffset" : 0, "componentType" : 5126, "count" : 23, "type" : "VEC3", "max" : [1.0562890768051147, 2.7136971950531006, 0.27577346563339233], "min" : [0.9402416944503784, 2.597649574279785, 0.27577340602874756], "name" : "POSITION"}, {"bufferView" : 2, "byteOffset" : 12, "componentType" : 5126, "count" : 23, "type" : "VEC4", "max" : [1.0000044107437134, 0.03997929394245148, 1.95829102267453E-06, 0], "min" : [0.9992049336433411, -0.03997937589883804, -8.000377533790015E-07, 0], "name" : "TANGENT"}, {"bufferView" : 2, "byteOffset" : 28, "componentType" : 5126, "count" : 23, "type" : "VEC3", "max" : [7.824173735571094E-07, 1.240008941749693E-06, 1.0000044107437134], "min" : [-1.9560322925826767E-06, -6.200018560775789E-07, 1.0000042915344238], "name" : "NORMAL"}, {"bufferView" : 2, "byteOffset" : 40, "componentType" : 5126, "count" : 23, "type" : "VEC2", "max" : [0.65625, 0.3125], "min" : [0.34375, 0], "name" : "TEXCOORD_0"}, {"bufferView" : 0, "byteOffset" : 96, "componentType" : 5123, "count" : 366, "type" : "SCALAR", "max" : [364], "min" : [0]}, {"bufferView" : 3, "byteOffset" : 0, "componentType" : 5126, "count" : 365, "type" : "VEC3", "max" : [0.12162590026855469, 0.33899688720703125, 0.0909552276134491], "min" : [-0.12162595987319946, -0.33899688720703125, -0.0909552350640297], "name" : "POSITION"}, {"bufferView" : 3, "byteOffset" : 12, "componentType" : 5126, "count" : 365, "type" : "VEC4", "max" : [1.0000044107437134, 1.0000044107437134, 1.0000044107437134, 0], "min" : [-1.0000044107437134, -1.0000044107437134, -0.9861175417900085, 0], "name" : "TANGENT"}, {"bufferView" : 3, "byteOffset" : 28, "componentType" : 5126, "count" : 365, "type" : "VEC3", "max" : [1.0000044107437134, 1.0000044107437134, 1.0000044107437134], "min" : [-1.0000044107437134, -1.0000044107437134, -1.0000044107437134], "name" : "NORMAL"}, {"bufferView" : 3, "byteOffset" : 40, "componentType" : 5126, "count" : 365, "type" : "VEC2", "max" : [0.7650347948074341, 0.9374474287033081], "min" : [0.07798074185848236, 0.3474268317222595], "name" : "TEXCOORD_0"}, {"bufferView" : 0, "byteOffset" : 828, "componentType" : 5123, "count" : 996, "type" : "SCALAR", "max" : [982], "min" : [0]}, {"bufferView" : 4, "byteOffset" : 0, "componentType" : 5126, "count" : 983, "type" : "VEC3", "max" : [2.2326865196228027, 0.9743437767028809, 0.1989280879497528], "min" : [0, -2.45147705078125, 0], "name" : "POSITION"}, {"bufferView" : 4, "byteOffset" : 12, "componentType" : 5126, "count" : 983, "type" : "VEC4", "max" : [1.0000044107437134, 1.0000044107437134, 1.0000044107437134, 0], "min" : [-1.0000044107437134, -1.0000044107437134, -0.6065513491630554, 0], "name" : "TANGENT"}, {"bufferView" : 4, "byteOffset" : 28, "componentType" : 5126, "count" : 983, "type" : "VEC3", "max" : [1.0000044107437134, 1.0000044107437134, 1.0000044107437134], "min" : [-1.0000044107437134, -1.0000044107437134, -1.0000044107437134], "name" : "NORMAL"}, {"bufferView" : 4, "byteOffset" : 40, "componentType" : 5126, "count" : 983, "type" : "VEC2", "max" : [0.12405645847320557, 0.5103588104248047], "min" : [0.04661518335342407, 0.3823012709617615], "name" : "TEXCOORD_0"}, {"bufferView" : 0, "byteOffset" : 2820, "componentType" : 5123, "count" : 36, "type" : "SCALAR", "max" : [35], "min" : [0]}, {"bufferView" : 5, "byteOffset" : 0, "componentType" : 5126, "count" : 36, "type" : "VEC3", "max" : [1.1163427829742432, 0.7278949618339539, 0.11547839641571045], "min" : [-1.1163437366485596, -0.865510106086731, -0.08344969153404236], "name" : "POSITION"}, {"bufferView" : 5, "byteOffset" : 12, "componentType" : 5126, "count" : 36, "type" : "VEC4", "max" : [1.0000044107437134, -0, 1.0000044107437134, 0], "min" : [0, -0, -1.0000044107437134, 0], "name" : "TANGENT"}, {"bufferView" : 5, "byteOffset" : 28, "componentType" : 5126, "count" : 36, "type" : "VEC3", "max" : [1.0000044107437134, 1.0000044107437134, 1.0000044107437134], "min" : [-1.0000044107437134, -1.0000044107437134, -1.0000044107437134], "name" : "NORMAL"}, {"bufferView" : 5, "byteOffset" : 40, "componentType" : 5126, "count" : 36, "type" : "VEC2", "max" : [0.6523014903068542, 0.5178711414337158], "min" : [0.6254947781562805, 0.4821288585662842], "name" : "TEXCOORD_0"}], "asset" : {"generator" : "Aspose.3D 22.7", "version" : "2.0"}, "buffers" : [{"uri" : "data:application/octet-stream;base64,", "byteLength" : 72324}], "bufferViews" : [{"buffer" : 0, "byteOffset" : 0, "byteLength" : 2892, "target" : 34963}, {"buffer" : 0, "byteOffset" : 2896, "byteLength" : 1152, "byteStride" : 48, "target" : 34962}, {"buffer" : 0, "byteOffset" : 4052, "byteLength" : 1152, "byteStride" : 48, "target" : 34962}, {"buffer" : 0, "byteOffset" : 5208, "byteLength" : 17568, "byteStride" : 48, "target" : 34962}, {"buffer" : 0, "byteOffset" : 22780, "byteLength" : 47808, "byteStride" : 48, "target" : 34962}, {"buffer" : 0, "byteOffset" : 70592, "byteLength" : 1728, "byteStride" : 48, "target" : 34962}], "images" : [{"uri" : "data:image/png;base64,"}], "materials" : [{"name" : "redGlow_MTL", "pbrMetallicRoughness" : {"baseColorFactor" : [0, 0, 0, 1], "metallicFactor" : 0, "roughnessFactor" : 0.9}, "emissiveFactor" : [0.4, 0, 0], "alphaMode" : "OPAQUE", "doubleSided" : false}, {"name" : "greenGlow_MTL", "pbrMetallicRoughness" : {"baseColorFactor" : [0, 0, 0, 1], "metallicFactor" : 0, "roughnessFactor" : 0.9}, "emissiveFactor" : [0, 0.434249967, 0.06680939], "alphaMode" : "OPAQUE", "doubleSided" : false}, {"name" : "genesis_MTL", "pbrMetallicRoughness" : {"baseColorFactor" : [1, 1, 1, 1], "baseColorTexture" : {"index" : 0, "texCoord" : 0}, "metallicFactor" : 0, "roughnessFactor" : 0.9}, "emissiveFactor" : [0, 0, 0], "alphaMode" : "OPAQUE", "doubleSided" : false}, {"name" : "genesis_MTL", "pbrMetallicRoughness" : {"baseColorFactor" : [1, 1, 1, 1], "baseColorTexture" : {"index" : 0, "texCoord" : 0}, "metallicFactor" : 0, "roughnessFactor" : 0.9}, "emissiveFactor" : [0, 0, 0], "alphaMode" : "OPAQUE", "doubleSided" : false}, {"name" : "genesis_MTL", "pbrMetallicRoughness" : {"baseColorFactor" : [1, 1, 1, 1], "baseColorTexture" : {"index" : 0, "texCoord" : 0}, "metallicFactor" : 0, "roughnessFactor" : 0.9}, "emissiveFactor" : [0, 0, 0], "alphaMode" : "OPAQUE", "doubleSided" : false}], "meshes" : [{"primitives" : [{"attributes" : {"POSITION" : 1, "TANGENT" : 2, "NORMAL" : 3, "TEXCOORD_0" : 4}, "indices" : 0, "material" : 0, "mode" : 4}]}, {"primitives" : [{"attributes" : {"POSITION" : 6, "TANGENT" : 7, "NORMAL" : 8, "TEXCOORD_0" : 9}, "indices" : 5, "material" : 1, "mode" : 4}]}, {"primitives" : [{"attributes" : {"POSITION" : 11, "TANGENT" : 12, "NORMAL" : 13, "TEXCOORD_0" : 14}, "indices" : 10, "material" : 2, "mode" : 4}]}, {"primitives" : [{"attributes" : {"POSITION" : 16, "TANGENT" : 17, "NORMAL" : 18, "TEXCOORD_0" : 19}, "indices" : 15, "material" : 3, "mode" : 4}]}, {"primitives" : [{"attributes" : {"POSITION" : 21, "TANGENT" : 22, "NORMAL" : 23, "TEXCOORD_0" : 24}, "indices" : 20, "material" : 4, "mode" : 4}]}], "nodes" : [{"matrix" : [1, 0, 0, 0, 0, 1, 0, 0, 0, 0, 1, 0, 0, 0, 0.005090329, 1], "mesh" : 0, "name" : "redGlow"}, {"matrix" : [1, 0, 0, 0, 0, 1, 0, 0, 0, 0, 1, 0, 0, 0, -0.005, 1], "mesh" : 1, "name" : "greenGlow"}, {"matrix" : [1, 0, 0, 0, 0, 1, 0, 0, 0, 0, 1, 0, 0.9947169, 2.78236771, 0.2036033, 1], "mesh" : 2, "name" : "lock"}, {"children" : [0, 1, 2], "name" : "doorLock_GRP"}, {"matrix" : [1, 0, 0, 0, 0, 2.14999986, 0, 0, 0, 0, 1, 0, 1.11634374, -0.590630352, 0.0834496841, 1], "mesh" : 4, "name" : "door_collider"}, {"children" : [4], "matrix" : [1, 0, 0, 0, 0, 1, 0, 0, 0, 0, 1, 0, -1.11634374, 2.88159919, -0.0834496841, 1], "mesh" : 3, "name" : "door"}], "samplers" : [{"magFilter" : 9729, "minFilter" : 9987, "wrapS" : 10497, "wrapT" : 10497}], "scene" : 0, "scenes" : [{"nodes" : [3, 5]}], "textures" : [{"sampler" : 0, "source" : 0, "name" : ""}]}